<svg width="25" height="24" viewBox="0 0 25 24" fill="none" xmlns="http://www.w3.org/2000/svg">
<path d="M7.25 17V10.75M12.5 17V7M17.75 17V14.5M20.375 2H4.625C3.92881 2 3.26113 2.26339 2.76884 2.73223C2.27656 3.20107 2 3.83696 2 4.5V19.5C2 20.163 2.27656 20.7989 2.76884 21.2678C3.26113 21.7366 3.92881 22 4.625 22H20.375C21.0712 22 21.7389 21.7366 22.2312 21.2678C22.7234 20.7989 23 20.163 23 19.5V4.5C23 3.83696 22.7234 3.20107 22.2312 2.73223C21.7389 2.26339 21.0712 2 20.375 2Z" stroke="#003333" stroke-width="2.8" stroke-linecap="round" stroke-linejoin="round"/>
</svg>
