<svg width="14" height="11" viewBox="0 0 14 11" fill="none" xmlns="http://www.w3.org/2000/svg">
<path d="M6.207 0.292786C6.01947 0.105315 5.76516 0 5.5 0C5.23484 0 4.98053 0.105315 4.793 0.292786L0.293 4.79279C0.105529 4.98031 0.000213623 5.23462 0.000213623 5.49979C0.000213623 5.76495 0.105529 6.01926 0.293 6.20679L4.793 10.7068C4.9816 10.8889 5.2342 10.9897 5.4964 10.9875C5.7586 10.9852 6.00941 10.88 6.19482 10.6946C6.38023 10.5092 6.4854 10.2584 6.48767 9.99619C6.48995 9.73399 6.38916 9.48139 6.207 9.29279L3.5 6.49979H13C13.2652 6.49979 13.5196 6.39443 13.7071 6.20689C13.8946 6.01936 14 5.765 14 5.49979C14 5.23457 13.8946 4.98022 13.7071 4.79268C13.5196 4.60514 13.2652 4.49979 13 4.49979H3.5L6.207 1.70679C6.39447 1.51926 6.49979 1.26495 6.49979 0.999786C6.49979 0.734622 6.39447 0.480314 6.207 0.292786Z" fill="#003333"/>
</svg>
