<svg width="27" height="27" viewBox="0 0 27 27" fill="none" xmlns="http://www.w3.org/2000/svg">
<path d="M12.0727 22.8724C11.7351 23.2098 11.2774 23.3994 10.8001 23.3994C10.3228 23.3994 9.86505 23.2098 9.5275 22.8724L1.4275 14.7724C1.09005 14.4348 0.900481 13.9771 0.900481 13.4998C0.900481 13.0225 1.09005 12.5647 1.4275 12.2272L9.5275 4.1272C9.86698 3.79931 10.3217 3.61788 10.7936 3.62199C11.2656 3.62609 11.717 3.81539 12.0508 4.14912C12.3845 4.48286 12.5738 4.93432 12.5779 5.40628C12.582 5.87823 12.4006 6.33291 12.0727 6.6724L7.2001 11.6998L24.3001 11.6998C24.7775 11.6998 25.2353 11.8894 25.5729 12.227C25.9105 12.5646 26.1001 13.0224 26.1001 13.4998C26.1001 13.9772 25.9105 14.435 25.5729 14.7726C25.2353 15.1102 24.7775 15.2998 24.3001 15.2998L7.2001 15.2998L12.0727 20.3272C12.4101 20.6647 12.5997 21.1225 12.5997 21.5998C12.5997 22.0771 12.4101 22.5348 12.0727 22.8724Z" fill="#059669"/>
</svg>
