<svg width="28" height="24" viewBox="0 0 28 24" fill="none" xmlns="http://www.w3.org/2000/svg">
<path d="M6.79688 4.20996C11.5289 -0.270085 19.1988 -0.270333 23.9307 4.20996C28.6672 8.69477 28.6672 15.9713 23.9307 20.4561C19.1988 24.9363 11.5289 24.9361 6.79688 20.4561C6.54363 20.2162 6.39953 19.8888 6.39941 19.5459C6.39941 19.2029 6.54353 18.8757 6.79688 18.6357V18.6348C7.04989 18.3958 7.39107 18.2627 7.74512 18.2627C8.05507 18.2627 8.35502 18.3651 8.59473 18.5508L8.69434 18.6348V18.6357C10.1998 20.0612 12.1721 20.9629 14.29 21.1924C16.4082 21.4218 18.5457 20.965 20.3535 19.8975C22.1611 18.8301 23.5317 17.2154 24.2441 15.3184C24.9564 13.4214 24.9692 11.3519 24.2803 9.44727C23.5912 7.5424 22.2406 5.91245 20.4463 4.8252C18.6518 3.73792 16.5202 3.25781 14.3994 3.46387C12.2785 3.67 10.2945 4.5499 8.77148 5.95898C7.29206 7.32784 6.33433 9.11769 6.03711 11.0498H6.98438C7.24909 11.0496 7.50907 11.1238 7.73047 11.2637C7.95174 11.4036 8.12546 11.6036 8.22852 11.8389C8.33161 12.0743 8.35921 12.3343 8.30664 12.585C8.25405 12.8354 8.12432 13.0643 7.93555 13.2432L5.54102 15.5088C5.41634 15.6277 5.26865 15.7219 5.10645 15.7861C4.94392 15.8505 4.76946 15.8834 4.59375 15.8838C4.41796 15.8841 4.24297 15.8518 4.08008 15.7881C3.91735 15.7244 3.76887 15.6304 3.64355 15.5117L3.6416 15.5098L1.24707 13.2432C1.05827 13.0643 0.928579 12.8354 0.875977 12.585C0.823353 12.3344 0.851099 12.0743 0.954102 11.8389C1.05705 11.6038 1.23013 11.4036 1.45117 11.2637C1.67226 11.1238 1.93183 11.0499 2.19629 11.0498H3.32031C3.62411 8.46156 4.84913 6.04818 6.79688 4.20996ZM14.166 6.5166C14.5207 6.5166 14.8631 6.64995 15.1162 6.88965C15.3695 7.12958 15.5137 7.45685 15.5137 7.7998V12.1826H20.1514C20.5059 12.1827 20.8475 12.3162 21.1006 12.5557C21.354 12.7956 21.498 13.1237 21.498 13.4668C21.4979 13.8097 21.3539 14.1371 21.1006 14.377C20.8475 14.6165 20.5059 14.75 20.1514 14.75H14.166C13.8115 14.7499 13.4699 14.6165 13.2168 14.377C12.9635 14.1371 12.8195 13.8097 12.8193 13.4668V7.7998C12.8193 7.4568 12.9635 7.12959 13.2168 6.88965C13.4699 6.65003 13.8115 6.51669 14.166 6.5166Z" fill="#003333" stroke="#003333" stroke-width="0.3"/>
</svg>
