<svg width="24" height="23" viewBox="0 0 24 23" fill="none" xmlns="http://www.w3.org/2000/svg">
<path d="M2 21V18.8889C2 17.7691 2.46825 16.6951 3.30175 15.9033C4.13524 15.1115 5.2657 14.6667 6.44444 14.6667H10.8889C12.0676 14.6667 13.1981 15.1115 14.0316 15.9033C14.8651 16.6951 15.3333 17.7691 15.3333 18.8889V21M16.4444 2.13722C17.4005 2.36976 18.2478 2.89796 18.8529 3.63855C19.458 4.37914 19.7865 5.28999 19.7865 6.2275C19.7865 7.16501 19.458 8.07586 18.8529 8.81645C18.2478 9.55704 17.4005 10.0852 16.4444 10.3178M22 21V18.8889C21.9944 17.957 21.6644 17.0531 21.0614 16.318C20.4585 15.5829 19.6165 15.058 18.6667 14.825M4.22222 6.22222C4.22222 7.34203 4.69047 8.41596 5.52397 9.20778C6.35746 9.9996 7.48793 10.4444 8.66667 10.4444C9.84541 10.4444 10.9759 9.9996 11.8094 9.20778C12.6429 8.41596 13.1111 7.34203 13.1111 6.22222C13.1111 5.10242 12.6429 4.02848 11.8094 3.23666C10.9759 2.44484 9.84541 2 8.66667 2C7.48793 2 6.35746 2.44484 5.52397 3.23666C4.69047 4.02848 4.22222 5.10242 4.22222 6.22222Z" stroke="#003333" stroke-width="3" stroke-linecap="round" stroke-linejoin="round"/>
</svg>
