<svg width="20" height="20" viewBox="0 0 20 20" fill="none" xmlns="http://www.w3.org/2000/svg">
<path fill-rule="evenodd" clip-rule="evenodd" d="M15.4 6.91571C15.1991 7.11636 14.9268 7.22906 14.6429 7.22906C14.3589 7.22906 14.0866 7.11636 13.8857 6.91571L11.0714 4.10143V14.6429C11.0714 14.927 10.9585 15.1995 10.7576 15.4005C10.5567 15.6014 10.2842 15.7143 10 15.7143C9.71584 15.7143 9.44332 15.6014 9.24239 15.4005C9.04145 15.1995 8.92857 14.927 8.92857 14.6429V4.10143L6.11429 6.91571C5.91118 7.10497 5.64254 7.208 5.36497 7.20311C5.08739 7.19821 4.82256 7.08576 4.62625 6.88946C4.42995 6.69316 4.3175 6.42832 4.31261 6.15075C4.30771 5.87317 4.41074 5.60454 4.6 5.40143L9.24286 0.758571L10 0L10.7571 0.757143L15.4 5.4C15.4996 5.4995 15.5785 5.61764 15.6324 5.74768C15.6863 5.87772 15.7141 6.0171 15.7141 6.15786C15.7141 6.29862 15.6863 6.438 15.6324 6.56803C15.5785 6.69807 15.4996 6.81621 15.4 6.91571ZM2.14286 12.5C2.14286 12.2158 2.02997 11.9433 1.82904 11.7424C1.62811 11.5415 1.35559 11.4286 1.07143 11.4286C0.787268 11.4286 0.514746 11.5415 0.313814 11.7424C0.112882 11.9433 4.23432e-09 12.2158 0 12.5V17.1429C0 17.9006 0.30102 18.6273 0.836838 19.1632C1.37266 19.699 2.09938 20 2.85714 20H17.1429C17.9006 20 18.6273 19.699 19.1632 19.1632C19.699 18.6273 20 17.9006 20 17.1429V12.5C20 12.2158 19.8871 11.9433 19.6862 11.7424C19.4853 11.5415 19.2127 11.4286 18.9286 11.4286C18.6444 11.4286 18.3719 11.5415 18.171 11.7424C17.97 11.9433 17.8571 12.2158 17.8571 12.5V17.1429C17.8571 17.3323 17.7819 17.514 17.6479 17.6479C17.514 17.7819 17.3323 17.8571 17.1429 17.8571H2.85714C2.6677 17.8571 2.48602 17.7819 2.35207 17.6479C2.21811 17.514 2.14286 17.3323 2.14286 17.1429V12.5Z" fill="#003333"/>
</svg>
