<svg width="51" height="51" viewBox="0 0 51 51" fill="none" xmlns="http://www.w3.org/2000/svg">
<path d="M40.2682 21.4609C41.2404 22.4935 41.3029 24.0813 40.2704 25.0535L25.7616 39.1629C25.6802 39.2329 25.5802 39.3471 25.436 39.4427C25.4174 39.487 25.3731 39.4684 25.3731 39.4684C25.2917 39.5384 25.1661 39.5897 25.0404 39.6411C24.9776 39.6668 24.9333 39.6482 24.9333 39.6482C24.8076 39.6996 24.682 39.751 24.5749 39.7581C24.5563 39.8024 24.512 39.7838 24.4935 39.8281C24.3235 39.8609 24.1979 39.9123 24.0023 39.8823C24.0023 39.8823 23.958 39.8637 23.9394 39.9079C23.8509 39.8708 23.6995 39.8593 23.5482 39.8479C23.5039 39.8293 23.5039 39.8293 23.4597 39.8108C23.3083 39.7993 23.1755 39.7436 22.9985 39.6693C22.8657 39.6136 22.7329 39.5579 22.6187 39.4579C22.5744 39.4393 22.5744 39.4393 22.5302 39.4208C22.4602 39.3394 22.3903 39.258 22.2575 39.2022C22.2318 39.1394 22.2318 39.1394 22.2318 39.1394C22.1875 39.1208 22.1875 39.1208 22.1875 39.1208C22.0733 39.0209 21.9777 38.8766 21.9006 38.6881C21.9006 38.6881 21.9006 38.6881 21.9192 38.6439C21.8049 38.5439 21.7978 38.4368 21.7464 38.3111C21.7464 38.3111 21.6579 38.274 21.6765 38.2297C21.6251 38.1041 21.5737 37.9784 21.5666 37.8713C21.5666 37.8713 21.5223 37.8527 21.5409 37.8085C21.5081 37.6385 21.5196 37.4872 21.5124 37.3801L21.4941 28.3671L15.1387 34.7058C15.0573 34.7758 14.9131 34.8714 14.7689 34.9671L14.7503 35.0113C14.6246 35.0627 14.4989 35.1141 14.3733 35.1655C14.3547 35.2098 14.3104 35.1912 14.3104 35.1912C14.1848 35.2426 14.0591 35.2939 13.9335 35.3453C13.7007 35.4038 13.575 35.4552 13.4237 35.4438L13.3351 35.4066C13.3351 35.4066 13.2909 35.388 13.2723 35.4323C13.1838 35.3952 13.0324 35.3837 12.9696 35.4094C12.8811 35.3723 12.8811 35.3723 12.8811 35.3723C12.6855 35.3422 12.5527 35.2865 12.4199 35.2308C12.2428 35.1565 12.1101 35.1008 11.9958 35.0008C11.9516 34.9823 11.9516 34.9823 11.8631 34.9451C11.7931 34.8637 11.7231 34.7823 11.6346 34.7452C11.6089 34.6823 11.6089 34.6823 11.5647 34.6638C11.4505 34.5638 11.3105 34.401 11.2777 34.2311C11.2335 34.2125 11.2335 34.2125 11.252 34.1682C11.2264 34.1054 11.175 33.9797 11.0793 33.8355C11.0793 33.8355 11.0793 33.8355 11.0094 33.7541C11.0023 33.647 10.9509 33.5213 10.9438 33.4142C10.8995 33.3957 10.8995 33.3957 10.9181 33.3514C10.8853 33.1815 10.8967 33.0301 10.8453 32.9044L10.792 12.6852C10.7622 11.2672 11.8948 10.1808 13.357 10.1697C14.6235 10.1285 15.7728 11.2353 15.7211 12.7232L15.9484 26.8211L22.1481 20.7293C22.9179 20.0112 23.9817 19.8329 24.9112 20.2229C25.885 20.6315 26.5031 21.5155 26.4858 22.5493L26.527 31.2595L36.7455 21.5445C37.7267 20.4466 39.3659 20.5097 40.2682 21.4609Z" fill="white"/>
<path d="M0 14.28C0 6.39337 6.39337 0 14.28 0H36.72C44.6066 0 51 6.39337 51 14.28V36.72C51 44.6066 44.6066 51 36.72 51H14.28C6.39337 51 0 44.6066 0 36.72V14.28Z" fill="#059669"/>
<path d="M42.7954 22.3351C43.8551 23.4909 43.9089 25.2549 42.764 26.3251L26.6731 41.86C26.5829 41.937 26.4719 42.0628 26.3123 42.1677C26.2915 42.2167 26.243 42.1957 26.243 42.1957C26.1527 42.2726 26.014 42.3285 25.8754 42.3844C25.806 42.4123 25.7575 42.3913 25.7575 42.3913C25.6187 42.4472 25.48 42.5031 25.3622 42.5101C25.3413 42.559 25.2928 42.538 25.272 42.587C25.0848 42.6218 24.9461 42.6777 24.7312 42.6425C24.7312 42.6425 24.6827 42.6215 24.6618 42.6705C24.5649 42.6285 24.3985 42.6143 24.2321 42.6002C24.1836 42.5792 24.1836 42.5792 24.135 42.5581C23.9686 42.5439 23.8232 42.4809 23.6291 42.3967C23.4836 42.3336 23.3381 42.2705 23.2134 42.1584C23.1649 42.1374 23.1649 42.1374 23.1164 42.1163C23.0401 42.0253 22.964 41.9342 22.8184 41.8711C22.7908 41.8012 22.7908 41.8012 22.7908 41.8012C22.7423 41.78 22.7423 41.78 22.7423 41.78C22.6176 41.668 22.5137 41.5069 22.4308 41.2969C22.4308 41.2969 22.4308 41.2969 22.4516 41.2478C22.3268 41.1358 22.32 41.0168 22.2647 40.8767C22.2647 40.8767 22.1677 40.8347 22.1885 40.7856C22.1333 40.6456 22.0778 40.5056 22.071 40.3866C22.071 40.3866 22.0225 40.3655 22.0434 40.3166C22.0089 40.1276 22.0229 39.9596 22.016 39.8405L22.0805 29.8306L15.0306 36.8113C14.9403 36.8882 14.7808 36.9931 14.6212 37.0979L14.6004 37.147C14.4617 37.2029 14.323 37.2588 14.1843 37.3147C14.1635 37.3637 14.115 37.3426 14.115 37.3426C13.9762 37.3985 13.8376 37.4544 13.6989 37.5102C13.4422 37.5731 13.3035 37.629 13.1371 37.6149L13.0402 37.5729C13.0402 37.5729 12.9917 37.5517 12.9709 37.6008C12.8738 37.5586 12.7074 37.5445 12.6381 37.5724C12.541 37.5304 12.541 37.5304 12.541 37.5304C12.3262 37.4953 12.1806 37.4321 12.0351 37.3691C11.841 37.2849 11.6955 37.2218 11.5709 37.1096C11.5223 37.0886 11.5223 37.0886 11.4254 37.0466C11.3491 36.9555 11.273 36.8645 11.1759 36.8225C11.1483 36.7524 11.1483 36.7524 11.0998 36.7314C10.9751 36.6192 10.8227 36.4371 10.7882 36.2481C10.7397 36.2271 10.7397 36.2271 10.7605 36.1781C10.7328 36.1081 10.6776 35.9681 10.5737 35.807C10.5737 35.807 10.5737 35.807 10.4975 35.7159C10.4907 35.5968 10.4354 35.4568 10.4285 35.3379C10.38 35.3168 10.38 35.3168 10.4008 35.2678C10.3663 35.0788 10.3804 34.9108 10.3251 34.7708L10.4561 12.3149C10.4368 10.7399 11.6926 9.54387 13.3011 9.54509C14.6945 9.51109 15.9483 10.7511 15.8775 12.403L15.9952 28.062L22.8715 21.3542C23.7249 20.5639 24.8968 20.3757 25.9155 20.8175C26.9827 21.2803 27.6542 22.2678 27.6255 23.4158L27.5892 33.0897L38.9199 22.3953C40.0094 21.1851 41.8119 21.2705 42.7954 22.3351Z" fill="white"/>
</svg>
