<svg width="18" height="18" viewBox="0 0 18 18" fill="none" xmlns="http://www.w3.org/2000/svg">
<path d="M13.5519 16.3933C13.3416 16.6036 13.0565 16.7219 12.7592 16.722L2.43914 16.7213C2.14172 16.7213 1.85603 16.6036 1.64572 16.3933C1.46173 16.2093 1.34804 15.9678 1.32255 15.7111L1.31771 15.5999V5.28886C1.32284 4.99481 1.44287 4.714 1.65262 4.50786C1.86236 4.30187 2.14515 4.18676 2.43914 4.18676C2.73315 4.18684 3.01527 4.30247 3.22497 4.50855C3.43455 4.71453 3.55596 4.99438 3.56126 5.28817H3.55988L3.65862 11.5948L3.67796 12.7756L15.406 1.0476C15.6163 0.837245 15.9019 0.718212 16.1994 0.718213C16.4967 0.71829 16.7819 0.836691 16.9921 1.04691C17.2024 1.25714 17.3207 1.54234 17.3208 1.83964C17.3208 2.13712 17.2025 2.4234 16.9921 2.63375L5.26412 14.3618L6.44424 14.3804L12.7509 14.4792H12.7592C13.0565 14.4793 13.3416 14.5976 13.5519 14.8079C13.7359 14.992 13.8497 15.2333 13.8751 15.4901L13.8806 15.6006C13.8805 15.8979 13.7622 16.1831 13.5519 16.3933Z" fill="#2563EB" stroke="#2563EB"/>
</svg>
