<svg width="26" height="21" viewBox="0 0 26 21" fill="none" xmlns="http://www.w3.org/2000/svg">
<path fill-rule="evenodd" clip-rule="evenodd" d="M19.0303 16.1695C19.7009 17.5384 20.3088 17.6578 20.6208 17.6578C20.9328 17.6578 21.5406 17.5384 22.2112 16.1695C22.8872 14.7972 23.3104 12.6766 23.3104 10.0902C23.3104 7.50373 22.8872 5.38311 22.2112 4.01085C21.5406 2.64026 20.9346 2.52254 20.6208 2.52254C20.307 2.52254 19.7009 2.64195 19.0303 4.01085C18.3543 5.38143 17.9312 7.50373 17.9312 10.0902C17.9312 12.6766 18.3543 14.7972 19.0303 16.1695ZM15.2415 10.0902C15.2415 12.5606 15.5948 14.8242 16.2994 16.5782L4.30734 12.2932C3.83139 12.123 3.4218 11.8212 3.13282 11.4278C2.84384 11.0344 2.6891 10.5679 2.6891 10.0902C2.6891 9.61244 2.84384 9.14598 3.13282 8.75257C3.4218 8.35916 3.83139 8.05736 4.30734 7.88716L16.2959 3.60219C15.593 5.3562 15.2415 7.62145 15.2415 10.0902ZM20.6208 20.1804C24.2069 20.1804 26 15.6633 26 10.0902C26 4.51704 24.2069 0 20.6208 0C19.4355 0 18.2593 0.201803 17.153 0.598684L3.35163 5.52942C2.36596 5.88147 1.51763 6.50613 0.919075 7.32062C0.320519 8.13511 0 9.10097 0 10.0902C0 11.0794 0.320519 12.0452 0.919075 12.8597C1.51763 13.6742 2.36596 14.2989 3.35163 14.6509L4.83451 15.1807C4.604 15.7003 4.48706 16.258 4.49062 16.8207C4.49419 17.3835 4.61818 17.9399 4.85526 18.4568C5.09233 18.9738 5.43766 19.4409 5.87078 19.8304C6.30389 20.2199 6.81598 20.5239 7.37667 20.7243C7.93737 20.9247 8.53527 21.0176 9.13492 20.9973C9.73458 20.977 10.3238 20.844 10.8676 20.6061C11.4114 20.3683 11.8988 20.0305 12.3009 19.6127C12.7029 19.195 13.0115 18.7058 13.2082 18.1741L17.153 19.5817C18.2601 19.9786 19.4355 20.1815 20.6208 20.1804ZM10.6925 17.2727L7.35199 16.0821C7.24414 16.2918 7.18391 16.5203 7.17513 16.7531C7.16635 16.9858 7.2092 17.2177 7.30098 17.4341C7.39276 17.6505 7.53145 17.8466 7.70828 18.0101C7.88511 18.1736 8.09622 18.3009 8.32823 18.3839C8.56025 18.4668 8.8081 18.5037 9.0561 18.4921C9.30411 18.4806 9.54684 18.4208 9.76894 18.3167C9.99103 18.2126 10.1876 18.0663 10.3463 17.8871C10.505 17.708 10.6223 17.4999 10.6907 17.2761" fill="#003333"/>
</svg>
