<svg width="16" height="16" viewBox="0 0 16 16" fill="none" xmlns="http://www.w3.org/2000/svg">
<path fill-rule="evenodd" clip-rule="evenodd" d="M9.26316 14.3158C9.26316 14.0924 9.35188 13.8783 9.5098 13.7203C9.66773 13.5624 9.88192 13.4737 10.1053 13.4737H14.3158V1.68421H10.1053C9.88192 1.68421 9.66773 1.59549 9.5098 1.43756C9.35188 1.27964 9.26316 1.06545 9.26316 0.842105C9.26316 0.618765 9.35188 0.404572 9.5098 0.246647C9.66773 0.0887215 9.88192 0 10.1053 0H14.3158C14.7625 0 15.1909 0.177443 15.5067 0.493294C15.8226 0.809144 16 1.23753 16 1.68421V13.4737C16 13.9204 15.8226 14.3488 15.5067 14.6646C15.1909 14.9805 14.7625 15.1579 14.3158 15.1579H10.1053C9.88192 15.1579 9.66773 15.0692 9.5098 14.9112C9.35188 14.7533 9.26316 14.5391 9.26316 14.3158Z" fill="#003333"/>
<path d="M0.240918 8.1685C0.0871887 8.01173 0.000768661 7.80112 7.72476e-05 7.58156V7.5765C0.000793457 7.35406 0.0894947 7.14093 0.246813 6.98366L3.61523 3.61524C3.69292 3.53481 3.78584 3.47066 3.88858 3.42652C3.99132 3.38239 4.10182 3.35916 4.21363 3.35819C4.32545 3.35721 4.43634 3.37852 4.53983 3.42086C4.64332 3.4632 4.73734 3.52573 4.81641 3.6048C4.89548 3.68387 4.95801 3.77789 5.00035 3.88138C5.04269 3.98487 5.064 4.09576 5.06302 4.20758C5.06205 4.31939 5.03882 4.42989 4.99469 4.53263C4.95055 4.63537 4.8864 4.72829 4.80597 4.80598L2.87502 6.73692H10.9474C11.1708 6.73692 11.385 6.82565 11.5429 6.98357C11.7008 7.1415 11.7896 7.35569 11.7896 7.57903C11.7896 7.80237 11.7008 8.01656 11.5429 8.17449C11.385 8.33241 11.1708 8.42113 10.9474 8.42113H2.87502L4.80597 10.3521C4.95937 10.5109 5.04425 10.7236 5.04233 10.9444C5.04041 11.1652 4.95185 11.3764 4.79571 11.5326C4.63958 11.6887 4.42837 11.7773 4.20757 11.7792C3.98678 11.7811 3.77406 11.6962 3.61523 11.5428L0.246813 8.1744L0.240918 8.1685Z" fill="#003333"/>
</svg>
