<svg width="228" height="59" viewBox="0 0 228 59" fill="none" xmlns="http://www.w3.org/2000/svg">
<path d="M89.0633 29.8933L87.7064 23.7641L85.8769 16.0203H85.766L82.5479 29.8933H77.3737L72.3572 12.3679H77.1529L79.1881 20.1273C79.5142 21.5173 79.8452 23.435 80.1816 25.8803H80.2766C80.3186 25.0861 80.5022 23.8268 80.8284 22.1025L81.0809 20.77L83.258 12.3679H88.5582L90.6253 20.77C90.6672 21 90.7306 21.3396 90.8145 21.789C90.9087 22.2384 90.9982 22.7191 91.0829 23.2311C91.1668 23.7328 91.2404 24.2292 91.3037 24.7204C91.3774 25.2011 91.4193 25.5877 91.4296 25.8803H91.5246C91.6188 25.1279 91.7875 24.0985 92.0289 22.7922C92.2712 21.4754 92.4445 20.5871 92.5498 20.1273L94.6636 12.3679H99.3803L94.301 29.8933H89.0633Z" fill="#003333"/>
<path d="M108.132 15.5146C107.112 15.5069 106.31 15.8247 105.726 16.4682C105.141 17.1013 104.802 18.0079 104.707 19.1881L111.458 19.2396C111.448 18.0586 111.146 17.1471 110.552 16.5051C109.959 15.8526 109.152 15.5224 108.132 15.5146ZM108.675 30.2857C105.836 30.2641 103.624 29.4687 102.04 27.8994C100.455 26.3302 99.6757 24.1191 99.7026 21.2663C99.7295 18.3298 100.486 16.0677 101.973 14.4801C103.471 12.8821 105.524 12.093 108.131 12.1129C110.624 12.132 112.558 12.8521 113.934 14.2734C115.309 15.6948 115.985 17.649 115.962 20.1361L115.94 22.456L104.567 22.3693C104.607 23.7282 105.002 24.792 105.752 25.5606C106.502 26.3293 107.561 26.7187 108.929 26.7292C109.99 26.7373 110.996 26.6352 111.944 26.423C112.893 26.2108 113.884 25.8682 114.92 25.3953L114.886 29.0947C114.04 29.5063 113.139 29.8077 112.18 29.999C111.221 30.2007 110.053 30.2963 108.675 30.2857Z" fill="#003333"/>
<path d="M126.063 30.2795C120.573 30.2377 117.855 27.2228 117.911 21.2349C117.938 18.2566 118.706 15.9895 120.214 14.4334C121.721 12.8668 123.869 12.0941 126.655 12.1154C128.696 12.1309 130.522 12.542 132.134 13.3485L130.68 17.037C129.926 16.7282 129.224 16.4772 128.574 16.2842C127.923 16.0806 127.272 15.9764 126.62 15.9714C124.117 15.9523 122.849 17.7088 122.817 21.2409C122.786 24.6686 124.021 26.392 126.524 26.411C127.45 26.4181 128.308 26.3044 129.099 26.0701C129.889 25.8253 130.682 25.4447 131.476 24.9281L131.438 29.0193C130.655 29.5046 129.863 29.8382 129.062 30.0202C128.272 30.2023 127.272 30.2887 126.063 30.2795Z" fill="#003333"/>
<path d="M137.068 21.1469C137.052 22.8816 137.324 24.1953 137.884 25.0878C138.454 25.9805 139.386 26.4318 140.679 26.4416C141.963 26.4514 142.886 26.0196 143.452 25.146C144.028 24.2621 144.324 22.9475 144.34 21.2023C144.357 19.4676 144.084 18.1644 143.525 17.2927C142.964 16.4211 142.038 15.9803 140.744 15.9704C139.461 15.9607 138.531 16.3873 137.956 17.2503C137.38 18.1029 137.084 19.4017 137.068 21.1469ZM149.262 21.2398C149.236 24.0928 148.458 26.318 146.929 27.9158C145.4 29.5135 143.284 30.3022 140.581 30.2816C138.888 30.2687 137.398 29.8915 136.111 29.1502C134.824 28.3984 133.84 27.3301 133.158 25.9454C132.478 24.5607 132.145 22.9487 132.162 21.1095C132.189 18.2462 132.961 16.0261 134.479 14.4491C135.997 12.8721 138.119 12.0941 140.842 12.1149C142.536 12.1278 144.026 12.5049 145.313 13.2463C146.599 13.9876 147.583 15.0455 148.265 16.4197C148.947 17.7939 149.279 19.4007 149.262 21.2398Z" fill="#003333"/>
<path d="M164.861 30.2675C162.789 30.2517 161.166 29.4398 159.992 27.8319C158.829 26.2241 158.26 24.0042 158.287 21.1722C158.313 18.2984 158.933 16.0667 160.146 14.477C161.37 12.8769 163.04 12.0849 165.153 12.1011C167.372 12.118 169.058 12.9878 170.209 14.7104L170.367 14.7117C170.137 13.4035 170.027 12.2375 170.036 11.2134L170.088 5.6017L174.915 5.6385L174.691 30.0289L170.999 30.0007L170.089 27.7208L169.884 27.7192C168.775 29.4351 167.1 30.2845 164.861 30.2675ZM166.583 26.4713C167.813 26.4807 168.716 26.1322 169.291 25.4259C169.875 24.7197 170.202 23.5152 170.27 21.8122L170.275 21.295C170.292 19.414 170.01 18.0637 169.428 17.2441C168.858 16.4246 167.915 16.0098 166.601 15.9998C165.528 15.9916 164.687 16.4398 164.08 17.3443C163.482 18.2386 163.176 19.5478 163.16 21.2721C163.144 22.9963 163.432 24.2944 164.024 25.1663C164.615 26.0278 165.469 26.4628 166.583 26.4713Z" fill="#003333"/>
<path d="M184.646 30.2795C179.157 30.2377 176.439 27.2228 176.494 21.2349C176.521 18.2566 177.289 15.9895 178.797 14.4334C180.305 12.8668 182.452 12.0941 185.239 12.1154C187.279 12.1309 189.105 12.542 190.717 13.3485L189.264 17.037C188.509 16.7282 187.807 16.4772 187.157 16.2842C186.506 16.0806 185.856 15.9764 185.203 15.9714C182.701 15.9523 181.433 17.7088 181.4 21.2409C181.369 24.6686 182.604 26.392 185.108 26.411C186.033 26.4181 186.891 26.3044 187.682 26.0701C188.473 25.8253 189.265 25.4447 190.059 24.9281L190.021 29.0193C189.238 29.5046 188.447 29.8382 187.646 30.0202C186.856 30.2023 185.856 30.2887 184.646 30.2795Z" fill="#003333"/>
<path d="M204.349 29.9968L203.44 27.607L203.314 27.6061C202.495 28.6136 201.652 29.3126 200.786 29.7031C199.931 30.0833 198.814 30.2681 197.437 30.2576C195.743 30.2447 194.413 29.7538 193.444 28.7849C192.485 27.8161 192.013 26.4436 192.03 24.667C192.047 22.8069 192.711 21.443 194.023 20.5751C195.346 19.6969 197.328 19.2208 199.969 19.1468L203.03 19.0761L203.037 18.308C203.053 16.5316 202.146 15.6363 200.316 15.6223C198.907 15.6116 197.247 16.0222 195.336 16.8542L193.772 13.6129C195.812 12.573 198.067 12.0624 200.538 12.0812C202.904 12.0992 204.714 12.6251 205.966 13.6589C207.219 14.6926 207.835 16.2545 207.816 18.3445L207.709 30.0224L204.349 29.9968ZM203.004 21.8663L201.142 21.9148C199.743 21.946 198.7 22.1888 198.012 22.6434C197.324 23.0979 196.975 23.7955 196.967 24.736C196.955 26.0841 197.727 26.764 199.283 26.7759C200.398 26.7844 201.289 26.4724 201.958 25.84C202.636 25.2077 202.981 24.3639 202.99 23.3084L203.004 21.8663Z" fill="#003333"/>
<path d="M214.709 29.9481L209.898 29.9114L210.122 5.521L214.933 5.55767L214.709 29.9481Z" fill="#003333"/>
<path d="M221.896 29.9481L217.084 29.9114L217.309 5.521L222.12 5.55767L221.896 29.9481Z" fill="#003333"/>
<path d="M156.174 29.9481L151.362 29.9114L151.586 5.521L156.398 5.55767L156.174 29.9481Z" fill="#003333"/>
<path d="M79.9663 48.7733L79.1881 46.2336H75.2733L74.4948 48.7733H72.0417L75.8315 38.0596H78.6151L82.4197 48.7733H79.9663ZM78.6445 44.3361C77.9248 42.0347 77.5183 40.7332 77.4253 40.4315C77.3372 40.1298 77.2736 39.8915 77.2344 39.7163C77.0728 40.3391 76.6101 41.879 75.8463 44.3361H78.6445ZM83.7782 48.7733V38.1034H86.055V48.7733H83.7782ZM99.8261 40.8548C99.8261 42.0614 99.4247 42.9835 98.622 43.6208C97.8184 44.2582 96.6412 44.5769 95.0887 44.5769H94.0976L93.1943 48.7733H91.9458L94.2148 38.1034H96.6388C97.6862 38.1034 98.4795 38.3345 99.0186 38.7968C99.5569 39.2541 99.8261 39.9401 99.8261 40.8548ZM94.3248 43.5113H95.3017C96.3594 43.5113 97.1629 43.29 97.7107 42.8472C98.2594 42.4045 98.5333 41.7549 98.5333 40.8986C98.5333 40.2904 98.3623 39.8525 98.0195 39.5849C97.6815 39.3125 97.1605 39.1762 96.4552 39.1762H95.2582L94.3248 43.5113ZM104.556 40.6723C105.486 40.6723 106.221 40.9473 106.759 41.4971C107.298 42.042 107.568 42.7937 107.568 43.7522C107.568 44.6669 107.391 45.5305 107.039 46.343C106.686 47.1556 106.208 47.7832 105.606 48.226C105.004 48.6687 104.324 48.8901 103.564 48.8901C102.625 48.8901 101.888 48.6152 101.354 48.0654C100.82 47.5156 100.554 46.7639 100.554 45.8103C100.554 44.8859 100.732 44.0174 101.09 43.2048C101.447 42.3874 101.93 41.7622 102.537 41.3292C103.143 40.8913 103.817 40.6723 104.556 40.6723ZM106.289 43.5843C106.289 43.0248 106.135 42.5724 105.827 42.2269C105.523 41.8766 105.11 41.7014 104.586 41.7014C104.052 41.7014 103.572 41.8814 103.146 42.2415C102.725 42.6015 102.397 43.1026 102.162 43.7449C101.932 44.3822 101.816 45.0926 101.816 45.876C101.816 46.5133 101.971 47.0072 102.279 47.3575C102.593 47.7029 103.041 47.8757 103.624 47.8757C104.133 47.8757 104.59 47.698 104.996 47.3429C105.403 46.9877 105.719 46.4841 105.944 45.8321C106.174 45.1754 106.289 44.4261 106.289 43.5843ZM114.383 48.7733L114.148 44.3798C114.128 43.9225 114.119 43.5041 114.119 43.1245V41.9861H114.052L113.686 42.8472L113.076 44.2266L110.939 48.7733H109.455L109.139 40.7745H110.343L110.476 45.1097V45.7519C110.476 46.4671 110.457 47.1215 110.417 47.7151H110.461C110.691 47.1118 111.027 46.3285 111.468 45.3651L113.634 40.7745H114.971L115.242 45.1097C115.271 45.927 115.287 46.5645 115.287 47.0217V47.4085L115.271 47.7151H115.316C115.453 47.2967 115.656 46.7663 115.925 46.1241C116.195 45.477 116.985 43.6938 118.298 40.7745H119.605L115.889 48.7733H114.383ZM122.675 48.9193C121.774 48.9193 121.066 48.6542 120.553 48.1238C120.038 47.5935 119.782 46.8587 119.782 45.9198C119.782 45.005 119.963 44.1292 120.325 43.2924C120.692 42.4507 121.177 41.7963 121.779 41.3292C122.381 40.8621 123.045 40.6286 123.769 40.6286C124.519 40.6286 125.082 40.7916 125.459 41.1176C125.835 41.4387 126.024 41.8887 126.024 42.4677C126.024 43.3435 125.618 44.0319 124.805 44.5331C123.992 45.0294 122.83 45.2775 121.317 45.2775H121.074L121.044 45.8613C121.044 46.4988 121.194 46.9974 121.492 47.3575C121.796 47.7127 122.263 47.8902 122.895 47.8902C123.204 47.8902 123.52 47.8465 123.843 47.7589C124.171 47.6713 124.578 47.5107 125.062 47.2772V48.3427C124.602 48.5568 124.195 48.7052 123.843 48.788C123.491 48.8755 123.101 48.9193 122.675 48.9193ZM123.696 41.6722C123.192 41.6722 122.717 41.9009 122.271 42.3582C121.83 42.8156 121.492 43.4505 121.257 44.2631H121.346C122.462 44.2631 123.316 44.1195 123.909 43.8324C124.506 43.5405 124.805 43.1197 124.805 42.5699C124.805 42.312 124.714 42.0979 124.533 41.9277C124.357 41.7574 124.078 41.6722 123.696 41.6722ZM132.003 40.6286C132.341 40.6286 132.634 40.6626 132.884 40.7308L132.62 41.8255C132.36 41.7622 132.103 41.7306 131.848 41.7306C131.403 41.7306 130.984 41.8766 130.593 42.1685C130.205 42.4604 129.866 42.8667 129.571 43.3873C129.283 43.903 129.069 44.4771 128.932 45.1097L128.147 48.7733H126.913L128.632 40.7745H129.652L129.491 42.256H129.564C129.917 41.7939 130.208 41.463 130.438 41.2635C130.669 41.0591 130.908 40.9034 131.158 40.7965C131.413 40.6845 131.695 40.6286 132.003 40.6286ZM142.704 43.3362C142.704 45.0926 142.199 46.4379 141.191 47.3721C140.187 48.3062 138.735 48.7733 136.836 48.7733H133.795V38.1034H137.166C138.919 38.1034 140.28 38.5632 141.249 39.4827C142.219 40.4023 142.704 41.6868 142.704 43.3362ZM140.339 43.3946C140.339 41.1029 139.321 39.9572 137.284 39.9572H136.072V46.905H137.049C139.242 46.905 140.339 45.7348 140.339 43.3946ZM144.657 38.5048C144.657 37.7798 145.063 37.4174 145.877 37.4174C146.69 37.4174 147.096 37.7798 147.096 38.5048C147.096 38.8502 146.993 39.1203 146.788 39.3149C146.587 39.5047 146.283 39.5995 145.877 39.5995C145.063 39.5995 144.657 39.2346 144.657 38.5048ZM146.993 48.7733H144.753V40.6139H146.993V48.7733ZM154.565 48.7733L154.132 47.664H154.073C153.696 48.136 153.307 48.4644 152.906 48.6493C152.509 48.8293 151.99 48.9193 151.349 48.9193C150.56 48.9193 149.939 48.6955 149.483 48.2478C149.032 47.8002 148.807 47.1629 148.807 46.3358C148.807 45.4697 149.11 44.8323 149.718 44.4236C150.33 44.0101 151.25 43.7814 152.479 43.7376L153.904 43.6938V43.3362C153.904 42.509 153.478 42.0955 152.626 42.0955C151.97 42.0955 151.199 42.2925 150.313 42.6867L149.571 41.1833C150.516 40.6918 151.564 40.4462 152.714 40.4462C153.816 40.4462 154.661 40.6845 155.248 41.1613C155.836 41.6382 156.129 42.3631 156.129 43.3362V48.7733H154.565ZM153.904 44.9929L153.038 45.022C152.386 45.0415 151.902 45.1583 151.584 45.3724C151.265 45.5865 151.106 45.9125 151.106 46.3503C151.106 46.978 151.468 47.2918 152.193 47.2918C152.712 47.2918 153.126 47.1434 153.435 46.8466C153.747 46.5498 153.904 46.1557 153.904 45.6644V44.9929ZM160.683 48.7733H158.443V37.4174H160.683V48.7733ZM166.442 42.0444C165.967 42.0444 165.595 42.1952 165.325 42.4969C165.055 42.7937 164.902 43.217 164.862 43.7668H168.006C167.996 43.217 167.852 42.7937 167.572 42.4969C167.293 42.1952 166.917 42.0444 166.442 42.0444ZM166.758 48.9193C165.435 48.9193 164.402 48.5568 163.658 47.8319C162.913 47.1069 162.541 46.0803 162.541 44.7521C162.541 43.3848 162.884 42.329 163.569 41.5846C164.26 40.8353 165.212 40.4607 166.427 40.4607C167.587 40.4607 168.49 40.7891 169.136 41.4459C169.783 42.1028 170.106 43.0102 170.106 44.1682V45.2483H164.811C164.835 45.8808 165.024 46.3746 165.376 46.7298C165.729 47.085 166.223 47.2626 166.86 47.2626C167.354 47.2626 167.822 47.2115 168.262 47.1094C168.703 47.0072 169.164 46.8442 169.644 46.6204V48.3427C169.252 48.5373 168.833 48.6809 168.388 48.7733C167.942 48.8706 167.399 48.9193 166.758 48.9193ZM176.511 40.4607C176.814 40.4607 177.067 40.4826 177.268 40.5264L177.098 42.6137C176.917 42.565 176.697 42.5407 176.437 42.5407C175.722 42.5407 175.164 42.7232 174.763 43.088C174.366 43.453 174.168 43.9638 174.168 44.6207V48.7733H171.928V40.6139H173.624L173.955 41.9861H174.065C174.32 41.5287 174.662 41.1613 175.093 40.884C175.529 40.6018 176.002 40.4607 176.511 40.4607Z" fill="#003333"/>
<path d="M42.75 0H16.625C7.44327 0 0 7.39626 0 16.52V42.48C0 51.6037 7.44327 59 16.625 59H42.75C51.9317 59 59.375 51.6037 59.375 42.48V16.52C59.375 7.39626 51.9317 0 42.75 0Z" fill="#059669"/>
<path d="M49.823 25.8387C51.0567 27.1758 51.1193 29.2165 49.7865 30.4545L31.0531 48.4263C30.9482 48.5153 30.8189 48.6609 30.6331 48.7823C30.6088 48.8389 30.5524 48.8146 30.5524 48.8146C30.4473 48.9035 30.2858 48.9683 30.1244 49.0329C30.0437 49.0653 29.9871 49.041 29.9871 49.041C29.8256 49.1055 29.6641 49.1703 29.527 49.1783C29.5026 49.235 29.4462 49.2106 29.422 49.2673C29.204 49.3076 29.0425 49.3722 28.7924 49.3316C28.7924 49.3316 28.7359 49.3072 28.7116 49.3639C28.5987 49.3153 28.405 49.2989 28.2113 49.2826C28.1548 49.2582 28.1548 49.2582 28.0983 49.2338C27.9046 49.2175 27.7353 49.1446 27.5093 49.0472C27.3399 48.9742 27.1705 48.9012 27.0253 48.7715C26.9688 48.7472 26.9688 48.7472 26.9124 48.7228C26.8236 48.6175 26.735 48.5121 26.5655 48.4392C26.5333 48.3582 26.5333 48.3582 26.5333 48.3582C26.4769 48.3337 26.4769 48.3337 26.4769 48.3337C26.3317 48.2042 26.2107 48.0178 26.1142 47.7748C26.1142 47.7748 26.1142 47.7748 26.1384 47.7181C25.9932 47.5885 25.9852 47.4508 25.9208 47.2887C25.9208 47.2887 25.8079 47.2401 25.8322 47.1833C25.7678 47.0214 25.7033 46.8594 25.6954 46.7217C25.6954 46.7217 25.6389 46.6974 25.6631 46.6408C25.623 46.4221 25.6393 46.2278 25.6314 46.09L25.7064 34.51L17.4988 42.5857C17.3937 42.6745 17.208 42.7959 17.0222 42.9172L16.998 42.9739C16.8365 43.0386 16.675 43.1033 16.5135 43.168C16.4893 43.2247 16.4328 43.2003 16.4328 43.2003C16.2713 43.2649 16.1099 43.3296 15.9484 43.3942C15.6496 43.467 15.4881 43.5316 15.2944 43.5153L15.1815 43.4666C15.1815 43.4666 15.125 43.4422 15.1008 43.499C14.9878 43.4502 14.7941 43.4338 14.7134 43.4662C14.6004 43.4176 14.6004 43.4175 14.6004 43.4175C14.3502 43.3769 14.1808 43.3038 14.0114 43.2309C13.7854 43.1336 13.616 43.0605 13.4709 42.9308C13.4144 42.9065 13.4144 42.9065 13.3015 42.8578C13.2128 42.7524 13.1241 42.6472 13.011 42.5986C12.9789 42.5174 12.9789 42.5174 12.9225 42.4931C12.7773 42.3634 12.5999 42.1527 12.5597 41.9341C12.5033 41.9097 12.5033 41.9097 12.5275 41.8531C12.4953 41.7721 12.4309 41.6101 12.3099 41.4237C12.3099 41.4237 12.3099 41.4238 12.2213 41.3184C12.2134 41.1807 12.149 41.0187 12.141 40.8811C12.0845 40.8567 12.0845 40.8567 12.1087 40.8C12.0686 40.5813 12.0849 40.387 12.0205 40.2251L12.1731 14.2467C12.1506 12.4246 13.6126 11.0409 15.4852 11.0424C17.1075 11.003 18.5672 12.4375 18.4847 14.3486L18.6217 32.4639L26.6273 24.7039C27.6209 23.7896 28.9851 23.5719 30.1711 24.0829C31.4137 24.6183 32.1954 25.7607 32.162 27.0889L32.1197 38.2802L45.3111 25.9082C46.5795 24.5083 48.678 24.607 49.823 25.8387Z" fill="white"/>
</svg>
