<svg xmlns="http://www.w3.org/2000/svg" width="90.445" height="91.667" viewBox="0 0 90.445 91.667">
  <g id="Logoikoon_valge" data-name="Logoikoon valge" transform="translate(-180.777 -349.333)">
    <path id="Path_5" data-name="Path 5" d="M45.261,27.87a1.888,1.888,0,0,1-1.383,2.284l-5.815,1.416,1.525,5.69a1.888,1.888,0,0,1-1.336,2.313,1.947,1.947,0,0,1-.489.076,1.888,1.888,0,0,1-1.822-1.4l-1.822-6.8-9.572-5.525V36.98l5.112,5.109a1.889,1.889,0,1,1-2.672,2.672L22.659,40.43l-4.328,4.331a1.889,1.889,0,1,1-2.672-2.672l5.112-5.109V25.928L11.2,31.453l-1.822,6.8a1.888,1.888,0,0,1-1.824,1.4,1.947,1.947,0,0,1-.491-.064,1.888,1.888,0,0,1-1.336-2.313l1.525-5.69L1.438,30.167a1.888,1.888,0,0,1,.9-3.667l6.95,1.706,9.593-5.548L9.292,17.121l-6.95,1.706a1.852,1.852,0,0,1-.451.054,1.888,1.888,0,0,1-.451-3.722l5.815-1.416-1.525-5.7a1.889,1.889,0,1,1,3.649-.977l1.822,6.8,9.57,5.525V8.334L15.659,3.225A1.889,1.889,0,0,1,18.331.553l4.328,4.331L26.987.553a1.889,1.889,0,0,1,2.672,2.672L24.547,8.334V19.386l9.57-5.525,1.822-6.8a1.889,1.889,0,1,1,3.649.977l-1.525,5.69,5.815,1.416a1.888,1.888,0,0,1-.451,3.734,1.852,1.852,0,0,1-.451-.054l-6.95-1.706-9.591,5.537,9.591,5.537,6.95-1.706a1.888,1.888,0,0,1,2.284,1.383Z" transform="matrix(0.616, 0.788, -0.788, 0.616, 243.289, 349.333)" fill="#fff"/>
    <path id="Path_4" data-name="Path 4" d="M21.14,3.134A5.112,5.112,0,0,0,15.063.16L3.782,3.237A5.143,5.143,0,0,0,0,8.185,57.436,57.436,0,0,0,57.432,65.617a5.143,5.143,0,0,0,4.948-3.782l3.077-11.281a5.112,5.112,0,0,0-2.974-6.077L50.176,39.35a5.112,5.112,0,0,0-5.936,1.487l-5.179,6.32a43.327,43.327,0,0,1-20.6-20.6l6.32-5.166a5.116,5.116,0,0,0,1.487-5.936L21.14,3.147Z" transform="translate(182.777 373.383)" fill="#fff" stroke="#fff" stroke-width="4"/>
  </g>
</svg>
