<svg width="18" height="18" viewBox="0 0 18 18" fill="none" xmlns="http://www.w3.org/2000/svg">
<path d="M13.5522 16.9929C13.3419 17.2032 13.0568 17.3215 12.7594 17.3216L2.43941 17.3209C2.14199 17.3209 1.8563 17.2033 1.64599 16.9929C1.462 16.8089 1.34832 16.5674 1.32282 16.3107L1.31799 16.1995V5.88847C1.32311 5.59442 1.44314 5.31361 1.6529 5.10747C1.86263 4.90148 2.14543 4.78637 2.43941 4.78637C2.73342 4.78645 3.01554 4.90208 3.22524 5.10816C3.43482 5.31414 3.55624 5.59399 3.56153 5.88778H3.56015L3.6589 12.1944L3.67823 13.3752L15.4063 1.64721C15.6166 1.43685 15.9022 1.31782 16.1997 1.31782C16.497 1.3179 16.7821 1.4363 16.9924 1.64652C17.2026 1.85675 17.321 2.14195 17.3211 2.43925C17.3211 2.73673 17.2028 3.02301 16.9924 3.23336L5.26439 14.9614L6.44451 14.98L12.7512 15.0788H12.7594C13.0568 15.0789 13.3419 15.1972 13.5522 15.4075C13.7362 15.5916 13.8499 15.8329 13.8753 16.0897L13.8809 16.2002C13.8808 16.4975 13.7624 16.7827 13.5522 16.9929Z" fill="#FF0000" stroke="#FF0000"/>
</svg>
