<svg width="18" height="18" viewBox="0 0 18 18" fill="none" xmlns="http://www.w3.org/2000/svg">
<path d="M5.10044 1.66038C5.3107 1.45014 5.59584 1.33178 5.89317 1.33168L16.2132 1.33237C16.5106 1.33242 16.7963 1.45007 17.0066 1.66038C17.1906 1.84442 17.3043 2.08591 17.3298 2.34263L17.3346 2.4538V12.7649C17.3295 13.0589 17.2095 13.3397 16.9997 13.5458C16.79 13.7518 16.5072 13.8669 16.2132 13.8669C15.9192 13.8669 15.6371 13.7512 15.4274 13.5452C15.2178 13.3392 15.0964 13.0593 15.0911 12.7655H15.0925L14.9937 6.4589L14.9744 5.27808L3.24636 17.0061C3.036 17.2165 2.75042 17.3355 2.45293 17.3355C2.15561 17.3354 1.87047 17.217 1.6602 17.0068C1.44997 16.7966 1.33164 16.5114 1.33151 16.2141C1.33151 15.9166 1.44985 15.6303 1.6602 15.42L13.3882 3.69193L12.2081 3.67328L5.90146 3.57454H5.89317C5.59582 3.57444 5.31071 3.45611 5.10044 3.24584C4.9164 3.06173 4.80269 2.82042 4.77727 2.5636L4.77175 2.45311C4.77186 2.15578 4.89019 1.87062 5.10044 1.66038Z" fill="#059669" stroke="#059669"/>
</svg>
