<svg width="93" height="84" viewBox="0 0 93 84" fill="none" xmlns="http://www.w3.org/2000/svg">
<g clip-path="url(#clip0_36_942)">
<mask id="mask0_36_942" style="mask-type:luminance" maskUnits="userSpaceOnUse" x="0" y="0" width="93" height="84">
<path d="M93 0H0V83.1725H93V0Z" fill="white"/>
</mask>
<g mask="url(#mask0_36_942)">
<path d="M47.6262 0.181234L44.6002 0.958838L7.31855 10.5391L4.2925 11.3167C2.82368 11.6959 1.5658 12.6402 0.794808 13.9424C0.0238154 15.2447 -0.197319 16.7984 0.179918 18.2629L13.3016 68.9661C13.6821 70.4298 14.6298 71.6833 15.9366 72.4514C17.2434 73.2197 18.8027 73.4402 20.2724 73.0642L20.2801 73.0622L63.5982 61.9307L63.606 61.9287C65.0749 61.5495 66.3328 60.6052 67.1037 59.3031C67.8747 58.0008 68.0959 56.4471 67.7187 54.9826L54.597 4.27933C54.2165 2.8157 53.2688 1.56225 51.962 0.793966C50.6552 0.0256892 49.0959 -0.19467 47.6262 0.181234Z" fill="#E9ECED"/>
<path d="M48.0424 1.77121L44.4582 2.69223L8.29269 11.9857L4.7086 12.9067C3.66262 13.1767 2.76685 13.8492 2.2178 14.7766C1.66875 15.7039 1.51128 16.8104 1.77992 17.8533L14.9015 68.5564C15.1725 69.5987 15.8473 70.4913 16.7781 71.0385C17.7087 71.5856 18.819 71.7425 19.8657 71.4748L19.8734 71.4728L63.1915 60.3414L63.1995 60.3393C64.2454 60.0692 65.1411 59.3968 65.6901 58.4695C66.2393 57.5421 66.3966 56.4356 66.1281 55.3927L53.0064 4.68956C52.7354 3.64729 52.0605 2.75468 51.13 2.20758C50.1994 1.66046 49.089 1.50354 48.0424 1.77121Z" fill="white"/>
<path d="M45.3329 18.1901L23.4193 23.8212C23.1746 23.8841 22.9148 23.8476 22.6971 23.7196C22.4794 23.5915 22.3216 23.3827 22.2585 23.1388C22.1953 22.8949 22.2321 22.636 22.3605 22.419C22.4889 22.2022 22.6985 22.0449 22.9434 21.9821L44.857 16.3509C45.1015 16.2883 45.3612 16.325 45.5787 16.453C45.7963 16.581 45.9538 16.7899 46.0168 17.0336C46.08 17.2774 46.0434 17.536 45.9151 17.753C45.7868 17.9698 45.5774 18.1271 45.3329 18.1901Z" fill="#F4F6F6"/>
<path d="M49.9456 20.3153L24.2253 26.9246C23.9806 26.9876 23.7208 26.951 23.5031 26.8231C23.2853 26.6951 23.1276 26.4861 23.0644 26.2422C23.0014 25.9983 23.0381 25.7395 23.1664 25.5225C23.2949 25.3056 23.5046 25.1484 23.7493 25.0854L49.4696 18.4761C49.7145 18.4132 49.9741 18.4499 50.1919 18.5778C50.4096 18.7058 50.5673 18.9148 50.6305 19.1587C50.6936 19.4026 50.657 19.6614 50.5285 19.8783C50.4 20.0953 50.1904 20.2524 49.9456 20.3153Z" fill="#F4F6F6"/>
<path d="M48.9317 32.0988L27.0181 37.7298C26.8969 37.761 26.7706 37.7681 26.6468 37.7507C26.5229 37.7332 26.4036 37.6916 26.2957 37.6283C26.1879 37.5649 26.0938 37.481 26.0185 37.3814C25.9432 37.2816 25.8884 37.1682 25.8572 37.0474C25.826 36.9266 25.8188 36.8009 25.8364 36.6775C25.8539 36.554 25.8957 36.4352 25.9592 36.3278C26.0229 36.2203 26.107 36.1264 26.207 36.0514C26.3071 35.9765 26.4209 35.9218 26.5421 35.8907L48.4556 30.2596C48.5768 30.2285 48.7029 30.2214 48.8269 30.2388C48.9508 30.2563 49.0701 30.2979 49.178 30.3613C49.2856 30.4246 49.3799 30.5086 49.4552 30.6082C49.5303 30.7079 49.5853 30.8213 49.6165 30.942C49.6478 31.0628 49.6547 31.1885 49.6373 31.3119C49.6199 31.4355 49.578 31.5544 49.5145 31.6617C49.4509 31.7692 49.3667 31.863 49.2666 31.938C49.1666 32.013 49.0529 32.0676 48.9317 32.0988Z" fill="#F4F6F6"/>
<path d="M53.5443 34.2242L27.824 40.8336C27.7028 40.8647 27.5767 40.8718 27.4527 40.8543C27.3289 40.8369 27.2096 40.7953 27.1018 40.7319C26.994 40.6686 26.8998 40.5846 26.8245 40.485C26.7493 40.3853 26.6945 40.2719 26.6632 40.1511C26.632 40.0304 26.6249 39.9047 26.6425 39.7811C26.6599 39.6577 26.7016 39.5388 26.7653 39.4315C26.8289 39.324 26.913 39.2302 27.013 39.1552C27.1131 39.0801 27.2269 39.0255 27.3481 38.9944L53.0684 32.3851C53.3131 32.3222 53.5729 32.3587 53.7906 32.4867C54.0083 32.6148 54.1661 32.8236 54.2292 33.0675C54.2924 33.3114 54.2556 33.5703 54.1272 33.7873C53.9987 34.0041 53.7892 34.1614 53.5443 34.2242Z" fill="#F4F6F6"/>
<path d="M52.5297 46.0074L30.6162 51.6386C30.3715 51.7012 30.1118 51.6645 29.8943 51.5365C29.6767 51.4086 29.5191 51.1998 29.456 50.9559C29.3929 50.7121 29.4296 50.4533 29.5579 50.2365C29.6862 50.0196 29.8956 49.8624 30.1401 49.7994L52.0538 44.1683C52.2985 44.1054 52.5584 44.1419 52.776 44.2699C52.9937 44.398 53.1515 44.6068 53.2146 44.8507C53.2777 45.0946 53.241 45.3535 53.1126 45.5703C52.9841 45.7873 52.7745 45.9446 52.5297 46.0074Z" fill="#F4F6F6"/>
<path d="M57.144 48.1327L31.4237 54.742C31.3023 54.7733 31.1762 54.7804 31.0521 54.7632C30.9282 54.7458 30.8089 54.7042 30.7009 54.6408C30.5931 54.5775 30.4988 54.4935 30.4235 54.3939C30.3481 54.2942 30.2933 54.1807 30.2621 54.0599C30.2307 53.939 30.2237 53.8132 30.2413 53.6897C30.2587 53.5662 30.3006 53.4473 30.3642 53.3398C30.4279 53.2323 30.5123 53.1385 30.6123 53.0635C30.7124 52.9884 30.8264 52.934 30.9476 52.9029L56.668 46.2935C56.9127 46.2306 57.1725 46.2671 57.3903 46.3952C57.608 46.5232 57.7656 46.732 57.8289 46.9759C57.8919 47.2198 57.8552 47.4788 57.7268 47.6957C57.5984 47.9127 57.3887 48.0698 57.144 48.1327Z" fill="#F4F6F6"/>
<path d="M19.6763 29.5952L11.9213 31.588C11.804 31.618 11.6795 31.6003 11.5751 31.5391C11.4708 31.4777 11.3951 31.3776 11.3647 31.2607L9.58457 24.3821C9.55443 24.2651 9.57209 24.141 9.63365 24.037C9.69522 23.933 9.79566 23.8577 9.91294 23.8274L17.668 21.8346C17.7852 21.8046 17.9098 21.8222 18.0141 21.8836C18.1186 21.9448 18.1941 22.0449 18.2245 22.1618L20.0047 29.0405C20.0348 29.1574 20.0172 29.2815 19.9556 29.3855C19.894 29.4895 19.7936 29.5649 19.6763 29.5952Z" fill="#E9ECED"/>
<path d="M23.2808 43.5037L15.5258 45.4965C15.4084 45.5265 15.2838 45.5089 15.1795 45.4475C15.0752 45.3861 14.9996 45.286 14.9691 45.1692L13.189 38.2906C13.1589 38.1736 13.1765 38.0496 13.2381 37.9456C13.2997 37.8416 13.4001 37.7662 13.5174 37.7359L21.2724 35.7431C21.3897 35.7131 21.5142 35.7306 21.6186 35.792C21.7229 35.8533 21.7986 35.9535 21.829 36.0704L23.6092 42.949C23.6393 43.066 23.6216 43.19 23.5601 43.2939C23.4985 43.3979 23.3981 43.4734 23.2808 43.5037Z" fill="#E9ECED"/>
<path d="M26.8795 57.4125L19.1246 59.4053C19.0072 59.4355 18.8826 59.4178 18.7783 59.3565C18.674 59.2951 18.5983 59.195 18.5679 59.0782L16.7878 52.1994C16.7576 52.0826 16.7753 51.9584 16.8368 51.8545C16.8984 51.7505 16.9988 51.6752 17.1161 51.6449L24.8711 49.6521C24.9885 49.6219 25.1131 49.6396 25.2174 49.7009C25.3217 49.7623 25.3974 49.8624 25.4278 49.9792L27.2079 56.858C27.2381 56.9748 27.2204 57.099 27.1588 57.2029C27.0973 57.3069 26.9967 57.3822 26.8795 57.4125Z" fill="#E9ECED"/>
<path d="M77.851 13.0342H33.0996C31.5824 13.0359 30.1276 13.6373 29.0548 14.7064C27.9818 15.7755 27.3783 17.225 27.3766 18.737V71.0991C27.3783 72.611 27.9818 74.0605 29.0548 75.1296C30.1276 76.1988 31.5824 76.8001 33.0996 76.8018H77.851C79.3684 76.8001 80.8231 76.1988 81.8959 75.1296C82.9688 74.0605 83.5723 72.611 83.574 71.0991V18.737C83.5723 17.225 82.9688 15.7755 81.8959 14.7064C80.8231 13.6373 79.3684 13.0359 77.851 13.0342Z" fill="#E9ECED"/>
<path d="M77.8497 14.6758H33.0983C32.0177 14.6769 30.9818 15.1052 30.2177 15.8666C29.4537 16.6279 29.024 17.6602 29.0228 18.7369V71.0989C29.024 72.1757 29.4537 73.2078 30.2177 73.9692C30.9818 74.7306 32.0177 75.1588 33.0983 75.16H77.8497C78.9303 75.1588 79.9662 74.7306 80.7301 73.9692C81.4941 73.2078 81.924 72.1757 81.9251 71.0989V18.7369C81.924 17.6602 81.4941 16.6279 80.7301 15.8666C79.9662 15.1052 78.9303 14.6769 77.8497 14.6758Z" fill="white"/>
<path d="M82.5528 83.1722C88.3225 83.1722 92.9999 78.5114 92.9999 72.762C92.9999 67.0126 88.3225 62.3518 82.5528 62.3518C76.783 62.3518 72.1057 67.0126 72.1057 72.762C72.1057 78.5114 76.783 83.1722 82.5528 83.1722Z" fill="#42B757"/>
<path d="M87.5482 71.4044H83.9143V67.7834C83.9143 67.4233 83.7708 67.078 83.5152 66.8232C83.2597 66.5686 82.9131 66.4255 82.5516 66.4255C82.1902 66.4255 81.8436 66.5686 81.5882 66.8232C81.3326 67.078 81.189 67.4233 81.189 67.7834V71.4044H77.5552C77.1938 71.4044 76.8472 71.5475 76.5917 71.8021C76.3361 72.0567 76.1926 72.4021 76.1926 72.7622C76.1926 73.1224 76.3361 73.4678 76.5917 73.7224C76.8472 73.977 77.1938 74.1201 77.5552 74.1201H81.189V77.7411C81.189 78.1011 81.3326 78.4465 81.5882 78.7013C81.8436 78.9559 82.1902 79.099 82.5516 79.099C82.9131 79.099 83.2597 78.9559 83.5152 78.7013C83.7708 78.4465 83.9143 78.1011 83.9143 77.7411V74.1201H87.5482C87.9096 74.1201 88.2561 73.977 88.5116 73.7224C88.7672 73.4678 88.9108 73.1224 88.9108 72.7622C88.9108 72.4021 88.7672 72.0567 88.5116 71.8021C88.2561 71.5475 87.9096 71.4044 87.5482 71.4044Z" fill="white"/>
<path d="M71.1177 43.4485H48.4871C48.3619 43.4486 48.2379 43.4242 48.1221 43.3765C48.0065 43.3289 47.9012 43.2589 47.8126 43.1707C47.724 43.0825 47.6536 42.9778 47.6057 42.8624C47.5577 42.7471 47.533 42.6235 47.533 42.4987C47.533 42.374 47.5577 42.2503 47.6057 42.135C47.6536 42.0198 47.724 41.9151 47.8126 41.8269C47.9012 41.7387 48.0065 41.6687 48.1221 41.6211C48.2379 41.5734 48.3619 41.5489 48.4871 41.5491H71.1177C71.3702 41.5494 71.6123 41.6496 71.7909 41.8276C71.9694 42.0057 72.0696 42.2471 72.0696 42.4987C72.0696 42.7504 71.9694 42.9918 71.7909 43.17C71.6123 43.348 71.3702 43.4482 71.1177 43.4485Z" fill="#E9ECED"/>
<path d="M75.049 46.6537H48.4871C48.3619 46.6538 48.2379 46.6293 48.1221 46.5817C48.0065 46.534 47.9012 46.4641 47.8126 46.3759C47.724 46.2877 47.6536 46.183 47.6057 46.0677C47.5577 45.9524 47.533 45.8289 47.533 45.704C47.533 45.5792 47.5577 45.4557 47.6057 45.3404C47.6536 45.2251 47.724 45.1204 47.8126 45.0322C47.9012 44.944 48.0065 44.874 48.1221 44.8264C48.2379 44.7786 48.3619 44.7543 48.4871 44.7544H75.049C75.3017 44.7544 75.544 44.8543 75.7228 45.0325C75.9015 45.2106 76.0019 45.4522 76.0019 45.704C76.0019 45.9559 75.9015 46.1975 75.7228 46.3754C75.544 46.5536 75.3017 46.6537 75.049 46.6537Z" fill="#E9ECED"/>
<path d="M71.1177 57.812H48.4871C48.3619 57.8122 48.2379 57.7877 48.1221 57.74C48.0065 57.6924 47.9012 57.6224 47.8126 57.5342C47.724 57.446 47.6536 57.3413 47.6057 57.226C47.5577 57.1108 47.533 56.9871 47.533 56.8624C47.533 56.7375 47.5577 56.614 47.6057 56.4987C47.6536 56.3834 47.724 56.2786 47.8126 56.1904C47.9012 56.1022 48.0065 56.0324 48.1221 55.9847C48.2379 55.9369 48.3619 55.9125 48.4871 55.9126H71.1177C71.3704 55.9126 71.6129 56.0127 71.7916 56.1908C71.9704 56.369 72.0706 56.6105 72.0706 56.8624C72.0706 57.1142 71.9704 57.3558 71.7916 57.5338C71.6129 57.7119 71.3704 57.812 71.1177 57.812Z" fill="#E9ECED"/>
<path d="M75.049 61.0172H48.4871C48.3619 61.0173 48.2379 60.9929 48.1221 60.9452C48.0065 60.8976 47.9012 60.8276 47.8126 60.7394C47.724 60.6512 47.6536 60.5465 47.6057 60.4312C47.5577 60.3159 47.533 60.1924 47.533 60.0676C47.533 59.9427 47.5577 59.8192 47.6057 59.7039C47.6536 59.5886 47.724 59.4839 47.8126 59.3957C47.9012 59.3075 48.0065 59.2376 48.1221 59.1899C48.2379 59.1423 48.3619 59.1178 48.4871 59.1179H75.049C75.1742 59.1178 75.2982 59.1423 75.414 59.1899C75.5297 59.2376 75.6349 59.3075 75.7235 59.3957C75.8121 59.4839 75.8825 59.5886 75.9304 59.7039C75.9784 59.8192 76.0031 59.9427 76.0031 60.0676C76.0031 60.1924 75.9784 60.3159 75.9304 60.4312C75.8825 60.5465 75.8121 60.6512 75.7235 60.7394C75.6349 60.8276 75.5297 60.8976 75.414 60.9452C75.2982 60.9929 75.1742 61.0173 75.049 61.0172Z" fill="#E9ECED"/>
<path d="M43.4144 48.1087H35.4058C35.2846 48.1086 35.1684 48.0605 35.0828 47.9752C34.9971 47.8897 34.949 47.774 34.9488 47.6534V40.5496C34.949 40.4288 34.9971 40.3131 35.0828 40.2278C35.1684 40.1423 35.2846 40.0944 35.4058 40.0942H43.4144C43.5356 40.0944 43.6519 40.1423 43.7375 40.2278C43.8232 40.3131 43.8713 40.4288 43.8714 40.5496V47.6534C43.8713 47.774 43.8232 47.8897 43.7375 47.9752C43.6519 48.0605 43.5356 48.1086 43.4144 48.1087Z" fill="#E9ECED"/>
<path d="M43.4144 62.4722H35.4058C35.2846 62.4721 35.1684 62.4242 35.0828 62.3387C34.9971 62.2534 34.949 62.1375 34.9488 62.0169V54.9131C34.949 54.7925 34.9971 54.6766 35.0828 54.5913C35.1684 54.506 35.2846 54.4579 35.4058 54.4578H43.4144C43.5356 54.4579 43.6519 54.506 43.7375 54.5913C43.8232 54.6766 43.8713 54.7925 43.8714 54.9131V62.0169C43.8713 62.1375 43.8232 62.2534 43.7375 62.3387C43.6519 62.4242 43.5356 62.4721 43.4144 62.4722Z" fill="#E9ECED"/>
<path d="M71.1421 27.4586H54.4576C54.2048 27.4586 53.9624 27.3587 53.7836 27.1805C53.6049 27.0024 53.5045 26.7608 53.5045 26.509C53.5045 26.2571 53.6049 26.0155 53.7836 25.8374C53.9624 25.6594 54.2048 25.5593 54.4576 25.5593H71.1421C71.3948 25.5593 71.6373 25.6594 71.8161 25.8374C71.9946 26.0155 72.0951 26.2571 72.0951 26.509C72.0951 26.7608 71.9946 27.0024 71.8161 27.1805C71.6373 27.3587 71.3948 27.4586 71.1421 27.4586Z" fill="#D2D9DA"/>
<path d="M75.0734 30.6641H54.4576C54.3323 30.6641 54.2085 30.6394 54.0929 30.5918C53.9772 30.544 53.8721 30.474 53.7836 30.3858C53.6952 30.2976 53.625 30.1929 53.577 30.0778C53.5292 29.9625 53.5045 29.8391 53.5045 29.7144C53.5045 29.5896 53.5292 29.4662 53.577 29.3509C53.625 29.2358 53.6952 29.1311 53.7836 29.0429C53.8721 28.9547 53.9772 28.8847 54.0929 28.8369C54.2085 28.7893 54.3323 28.7646 54.4576 28.7646H75.0734C75.3261 28.7646 75.5685 28.8647 75.7472 29.0429C75.9259 29.221 76.0263 29.4624 76.0263 29.7144C76.0263 29.9663 75.9259 30.2077 75.7472 30.3858C75.5685 30.564 75.3261 30.6641 75.0734 30.6641Z" fill="#D2D9DA"/>
<path d="M50.7648 34.5483H35.383C35.262 34.5481 35.1457 34.5001 35.0601 34.4148C34.9744 34.3293 34.9262 34.2136 34.9262 34.0928V22.1306C34.9262 22.01 34.9744 21.8941 35.0601 21.8088C35.1457 21.7235 35.262 21.6754 35.383 21.6753H50.7648C50.886 21.6754 51.0021 21.7235 51.0878 21.8088C51.1734 21.8941 51.2216 22.01 51.2218 22.1306V34.0928C51.2216 34.2136 51.1734 34.3293 51.0878 34.4148C51.0021 34.5001 50.886 34.5481 50.7648 34.5483Z" fill="#295555"/>
</g>
</g>
<defs>
<clipPath id="clip0_36_942">
<rect width="93" height="84" fill="white"/>
</clipPath>
</defs>
</svg>
