<svg width="20" height="20" viewBox="0 0 20 20" fill="none" xmlns="http://www.w3.org/2000/svg">
<path d="M5.375 1C5.875 1 7.875 5.49136 7.875 5.9904C7.875 6.98848 6.375 7.98655 5.875 8.98463C5.375 9.98271 6.375 10.9808 7.375 11.9789C7.765 12.3681 9.375 13.975 10.375 13.476C11.375 12.977 12.375 11.4798 13.375 11.4798C13.875 11.4798 18.375 13.476 18.375 13.975C18.375 15.9712 16.875 17.4683 15.375 17.9673C13.875 18.4664 12.875 18.4664 10.875 17.9673C8.875 17.4683 7.375 16.9693 4.875 14.4741C2.375 11.9789 1.875 10.4818 1.375 8.48559C0.875 6.48944 0.875 5.49136 1.375 3.99424C1.875 2.49712 3.375 1 5.375 1Z" stroke="#059669" stroke-width="2" stroke-linecap="round" stroke-linejoin="round"/>
</svg>
